<?xml version="1.0" encoding="UTF-8"?>
<svg id="Layer_1" data-name="Layer 1" xmlns="http://www.w3.org/2000/svg" viewBox="0 0 394.52 100.17">
  <defs>
    <style>
      .cls-1 {
        fill: #231f20;
      }
    </style>
  </defs>
  <g>
    <path class="cls-1" d="M72.17,100.17h-12.39v-44.16H12.39v44.16H0V2.69h12.39v42.14h47.39V2.69h12.39v97.48Z"/>
    <path class="cls-1" d="M180.43,100.17h-12.25V30.97h10.5l.67,7.81c6.87-5.25,14.14-9.29,23.56-9.29s14.68,3.1,17.37,9.56c6.73-5.39,14.54-9.56,23.97-9.56,14.54,0,19.66,8.08,19.66,23.56v47.12h-12.25v-45.37c0-9.29-1.88-14.54-10.77-14.54-6.6,0-14.54,4.31-18.58,7.67.13,1.62.27,3.37.27,5.12v47.12h-12.25v-45.37c0-9.29-1.89-14.54-10.77-14.54-7,0-15.48,4.85-19.12,8.21v51.7Z"/>
    <path class="cls-1" d="M286.93,17.64c-5.52,0-8.62-3.23-8.62-8.89s3.1-8.75,8.62-8.75,8.75,3.1,8.75,8.75-3.23,8.89-8.75,8.89ZM292.86,100.17h-12.25V30.97h12.25v69.21Z"/>
    <path class="cls-1" d="M324.36,100.17h-12.39V2.69h56.95v10.77h-44.57v33.8h41.2v10.77h-41.2v42.14Z"/>
    <path class="cls-1" d="M385.77,17.64c-5.52,0-8.62-3.23-8.62-8.89s3.1-8.75,8.62-8.75,8.75,3.1,8.75,8.75-3.23,8.89-8.75,8.89ZM391.69,100.17h-12.25V30.97h12.25v69.21Z"/>
  </g>
  <g>
    <g>
      <path d="M138.53,84.17c12.98-11,12.06-31.35-2.01-40.97-1.8-1.23-3.83-1.75-4.45-4.12-.96-3.66,2.7-6.64,6.14-5.1,4.68,2.09,9.99,7.43,12.75,11.7,13.6,21.02.8,49.43-23.89,52.96-28.73,4.11-49.74-26.8-34.8-51.87,2.82-4.72,8.35-10.52,13.42-12.79,3.47-1.55,7.16,1.5,6.12,5.16-.66,2.34-2.64,2.83-4.43,4.06-11.87,8.12-14.85,24.78-6.26,36.45s25.96,14.23,37.41,4.53Z"/>
      <path class="cls-1" d="M122.01,99.99c-11.87,0-22.91-5.84-29.66-15.96-7.64-11.47-8-25.95-.95-37.79,2.82-4.74,8.49-10.79,13.87-13.19,2-.89,4.25-.57,5.87.83,1.58,1.36,2.2,3.48,1.62,5.51-.61,2.16-2.19,3.06-3.57,3.85-.42.24-.84.48-1.26.76-5.48,3.75-9.28,9.71-10.4,16.35-1.13,6.67.42,13.31,4.38,18.68,4.1,5.57,10.38,9.22,17.22,10.02,6.84.8,13.49-1.21,18.75-5.66h0c5.99-5.07,9.19-12.47,8.78-20.29-.4-7.75-4.3-14.71-10.71-19.1-.41-.28-.84-.52-1.25-.76-1.42-.81-3.03-1.73-3.61-3.93-.53-2.04.11-4.13,1.69-5.47,1.62-1.37,3.85-1.68,5.82-.79,4.96,2.22,10.39,7.75,13.18,12.07,6.6,10.2,7.51,22.96,2.43,34.12-5.04,11.06-15.14,18.68-27.02,20.38-1.74.25-3.48.37-5.2.37ZM107.58,34.56c-.5,0-1,.11-1.49.32-5,2.23-10.31,7.92-12.97,12.39-6.66,11.18-6.32,24.84.89,35.66,7.29,10.94,19.9,16.57,32.91,14.71,11.2-1.6,20.73-8.79,25.48-19.23,4.8-10.53,3.94-22.57-2.29-32.2-2.57-3.97-7.76-9.29-12.32-11.33-1.27-.57-2.69-.38-3.71.49-1,.85-1.39,2.14-1.05,3.44.37,1.39,1.33,1.94,2.66,2.7.46.26.93.53,1.39.85,6.93,4.74,11.15,12.26,11.58,20.64.44,8.45-3.02,16.44-9.49,21.92-5.68,4.81-12.88,6.99-20.27,6.12-7.39-.86-14.17-4.81-18.59-10.82-4.28-5.81-5.97-12.99-4.74-20.2,1.22-7.17,5.31-13.61,11.24-17.66.46-.32.94-.59,1.4-.85,1.31-.75,2.25-1.28,2.64-2.66.37-1.3,0-2.59-1.01-3.46-.64-.55-1.44-.84-2.26-.84Z"/>
    </g>
    <g>
      <path d="M125.32,55.24c-2.48,2.91-7.3,1.4-7.82-2.34v-29c.83-5.2,8.06-5.19,8.88,0v28.85c-.14.92-.45,1.77-1.06,2.49Z"/>
      <path class="cls-1" d="M122.03,57.77c-.52,0-1.05-.07-1.58-.23-2.13-.62-3.63-2.35-3.93-4.5v-.14s0-29.16,0-29.16c.52-3.27,3.1-4.74,5.43-4.74h0c2.33,0,4.91,1.47,5.43,4.74v.16s.02,28.93.02,28.93v.08c-.22,1.21-.64,2.19-1.32,2.98h0c-1.04,1.22-2.51,1.88-4.06,1.88ZM118.51,52.83c.25,1.59,1.45,2.48,2.5,2.79,1.34.39,2.67,0,3.55-1.03h0c.42-.5.69-1.11.84-1.93v-28.68c-.4-2.2-2.1-2.98-3.45-2.98s-3.06.78-3.44,2.98v28.85Z"/>
    </g>
  </g>
</svg>